<svg xmlns="http://www.w3.org/2000/svg" width="1240" height="1754" viewBox="0 0 1240 1754">
<defs><marker id="arrow" markerWidth="10" markerHeight="8" refX="10" refY="4" orient="auto" markerUnits="strokeWidth"><path d="M0,0 L10,4 L0,8 z" fill="#000"/></marker></defs>
<rect width="100%" height="100%" fill="#fff"/>
<rect x="92" y="130" width="1056" height="1325" fill="#fff" stroke="#000" stroke-width="2"/>
<circle cx="170.0" cy="155" r="10" fill="#fff" stroke="#000" stroke-width="2"/>
<line x1="170.0" y1="165" x2="170.0" y2="205" stroke="#000" stroke-width="2"/>
<line x1="150.0" y1="189" x2="190.0" y2="189" stroke="#000" stroke-width="2"/>
<line x1="170.0" y1="205" x2="154.0" y2="229" stroke="#000" stroke-width="2"/>
<line x1="170.0" y1="205" x2="186.0" y2="229" stroke="#000" stroke-width="2"/>
<text x="170.0" y="247.0" text-anchor="middle" dominant-baseline="middle" font-family="Comic Sans MS" font-size="14" font-weight="bold" fill="#000000">Judge</text>
<line x1="170.0" y1="260.0" x2="170.0" y2="1423.0" stroke="#777" stroke-width="2" stroke-dasharray="6 6"/>
<rect x="395.7" y="152" width="142.0" height="54" fill="#fff" stroke="#000" stroke-width="2"/>
<text x="466.7" y="179.0" text-anchor="middle" dominant-baseline="middle" font-family="Comic Sans MS" font-size="14" font-weight="bold" fill="#000000">Review Form</text>
<line x1="466.7" y1="206.0" x2="466.7" y2="1423.0" stroke="#777" stroke-width="2" stroke-dasharray="6 6"/>
<rect x="692.3" y="152" width="142.0" height="54" fill="#fff" stroke="#000" stroke-width="2"/>
<text x="763.3" y="179.0" text-anchor="middle" dominant-baseline="middle" font-family="Comic Sans MS" font-size="14" font-weight="bold" fill="#000000">ReviewController</text>
<line x1="763.3" y1="206.0" x2="763.3" y2="1423.0" stroke="#777" stroke-width="2" stroke-dasharray="6 6"/>
<rect x="989.0" y="152" width="142.0" height="54" fill="#fff" stroke="#000" stroke-width="2"/>
<text x="1060.0" y="179.0" text-anchor="middle" dominant-baseline="middle" font-family="Comic Sans MS" font-size="14" font-weight="bold" fill="#000000">Database</text>
<line x1="1060.0" y1="206.0" x2="1060.0" y2="1423.0" stroke="#777" stroke-width="2" stroke-dasharray="6 6"/>
<rect x="170.0" y="260.0" width="928.0" height="45.1" fill="#ffff88" stroke="#d6d67d" stroke-width="1"/>
<text x="620.0" y="282.5" text-anchor="middle" dominant-baseline="middle" font-family="Comic Sans MS" font-size="14" font-weight="bold" fill="#000000">Review Submission Flow - Scormetry 2.0</text>
<line x1="177.0" y1="377.7" x2="459.7" y2="377.7" stroke="#000" stroke-width="2" marker-end="url(#arrow)" />
<rect x="219.8" y="348.7" width="197.0" height="26.0" fill="#fff"/>
<text x="318.3" y="361.7" text-anchor="middle" dominant-baseline="middle" font-family="Comic Sans MS" font-size="13" font-weight="bold" fill="#000000">Enter scores and feedback</text>
<line x1="473.7" y1="485.6" x2="756.3" y2="485.6" stroke="#000" stroke-width="2" marker-end="url(#arrow)" />
<rect x="505.4" y="456.6" width="219.2" height="26.0" fill="#fff"/>
<text x="615.0" y="469.6" text-anchor="middle" dominant-baseline="middle" font-family="Comic Sans MS" font-size="13" font-weight="bold" fill="#000000">POST /papers/{paper}/reviews</text>
<line x1="770.3" y1="593.6" x2="1053.0" y2="593.6" stroke="#000" stroke-width="2" marker-end="url(#arrow)" />
<rect x="809.5" y="564.6" width="204.4" height="26.0" fill="#fff"/>
<text x="911.7" y="577.6" text-anchor="middle" dominant-baseline="middle" font-family="Comic Sans MS" font-size="13" font-weight="bold" fill="#000000">Verify reviewer assignment</text>
<line x1="770.3" y1="701.5" x2="1053.0" y2="701.5" stroke="#000" stroke-width="2" marker-end="url(#arrow)" />
<rect x="791.0" y="672.5" width="241.4" height="26.0" fill="#fff"/>
<text x="911.7" y="685.5" text-anchor="middle" dominant-baseline="middle" font-family="Comic Sans MS" font-size="13" font-weight="bold" fill="#000000">Confirm rubric status is locked</text>
<rect x="170.0" y="769.5" width="928.0" height="45.1" fill="#ffff88" stroke="#d6d67d" stroke-width="1"/>
<text x="620.0" y="792.1" text-anchor="middle" dominant-baseline="middle" font-family="Comic Sans MS" font-size="14" font-weight="bold" fill="#000000">Score Validation and Locking Flow</text>
<polyline points="763.3,887.2 819.3,887.2 819.3,915.2 763.3,915.2" fill="none" stroke="#000" stroke-width="2"/>
<polygon points="763.3,915.2 773.3,909.2 773.3,921.2" fill="#000"/>
<rect x="700.2" y="848.2" width="182.2" height="44.0" fill="#fff"/>
<text x="791.3" y="861.7" text-anchor="middle" dominant-baseline="middle" font-family="Comic Sans MS" font-size="13" font-weight="bold" fill="#000000">Validate scores against</text>
<text x="791.3" y="878.7" text-anchor="middle" dominant-baseline="middle" font-family="Comic Sans MS" font-size="13" font-weight="bold" fill="#000000">max_score</text>
<polyline points="763.3,995.2 819.3,995.2 819.3,1023.2 763.3,1023.2" fill="none" stroke="#000" stroke-width="2"/>
<polygon points="763.3,1023.2 773.3,1017.2 773.3,1029.2" fill="#000"/>
<rect x="696.5" y="965.2" width="189.6" height="26.0" fill="#fff"/>
<text x="791.3" y="978.2" text-anchor="middle" dominant-baseline="middle" font-family="Comic Sans MS" font-size="13" font-weight="bold" fill="#000000">Calculate weighted total</text>
<line x1="770.3" y1="1103.1" x2="1053.0" y2="1103.1" stroke="#000" stroke-width="2" marker-end="url(#arrow)" />
<rect x="779.9" y="1065.1" width="263.6" height="44.0" fill="#fff"/>
<text x="911.7" y="1078.6" text-anchor="middle" dominant-baseline="middle" font-family="Comic Sans MS" font-size="13" font-weight="bold" fill="#000000">Save review (scores_json, comment,</text>
<text x="911.7" y="1095.6" text-anchor="middle" dominant-baseline="middle" font-family="Comic Sans MS" font-size="13" font-weight="bold" fill="#000000">locked_at)</text>
<line x1="1053.0" y1="1211.1" x2="770.3" y2="1211.1" stroke="#000" stroke-width="2" stroke-dasharray="11 8" marker-end="url(#arrow)" />
<rect x="861.3" y="1182.1" width="100.8" height="26.0" fill="#fff"/>
<text x="911.7" y="1195.1" text-anchor="middle" dominant-baseline="middle" font-family="Comic Sans MS" font-size="13" font-weight="bold" fill="#000000">Review saved</text>
<line x1="756.3" y1="1319.0" x2="473.7" y2="1319.0" stroke="#000" stroke-width="2" stroke-dasharray="11 8" marker-end="url(#arrow)" />
<rect x="490.6" y="1290.0" width="248.8" height="26.0" fill="#fff"/>
<text x="615.0" y="1303.0" text-anchor="middle" dominant-baseline="middle" font-family="Comic Sans MS" font-size="13" font-weight="bold" fill="#000000">Show submitted and locked review</text>
<text x="620.0" y="1517.0" text-anchor="middle" dominant-baseline="middle" font-family="Times New Roman" font-size="31" font-weight="bold" fill="#000000">Fig. 17. Submit Review Sequence Diagram (Judge)</text>
</svg>