<svg xmlns="http://www.w3.org/2000/svg" width="1240" height="1754" viewBox="0 0 1240 1754">
<defs><marker id="arrow" markerWidth="10" markerHeight="8" refX="10" refY="4" orient="auto" markerUnits="strokeWidth"><path d="M0,0 L10,4 L0,8 z" fill="#000"/></marker></defs>
<rect width="100%" height="100%" fill="#fff"/>
<rect x="92" y="130" width="1056" height="1325" fill="#fff" stroke="#000" stroke-width="2"/>
<circle cx="170.0" cy="155" r="10" fill="#fff" stroke="#000" stroke-width="2"/>
<line x1="170.0" y1="165" x2="170.0" y2="205" stroke="#000" stroke-width="2"/>
<line x1="150.0" y1="189" x2="190.0" y2="189" stroke="#000" stroke-width="2"/>
<line x1="170.0" y1="205" x2="154.0" y2="229" stroke="#000" stroke-width="2"/>
<line x1="170.0" y1="205" x2="186.0" y2="229" stroke="#000" stroke-width="2"/>
<text x="170.0" y="247.0" text-anchor="middle" dominant-baseline="middle" font-family="Comic Sans MS" font-size="14" font-weight="bold" fill="#000000">Admin</text>
<line x1="170.0" y1="260.0" x2="170.0" y2="1423.0" stroke="#777" stroke-width="2" stroke-dasharray="6 6"/>
<rect x="321.5" y="152" width="142.0" height="54" fill="#fff" stroke="#000" stroke-width="2"/>
<text x="392.5" y="170.0" text-anchor="middle" dominant-baseline="middle" font-family="Comic Sans MS" font-size="14" font-weight="bold" fill="#000000">Team</text>
<text x="392.5" y="188.0" text-anchor="middle" dominant-baseline="middle" font-family="Comic Sans MS" font-size="14" font-weight="bold" fill="#000000">Scores Page</text>
<line x1="392.5" y1="206.0" x2="392.5" y2="1423.0" stroke="#777" stroke-width="2" stroke-dasharray="6 6"/>
<rect x="544.0" y="152" width="142.0" height="54" fill="#fff" stroke="#000" stroke-width="2"/>
<text x="615.0" y="179.0" text-anchor="middle" dominant-baseline="middle" font-family="Comic Sans MS" font-size="14" font-weight="bold" fill="#000000">TeamController</text>
<line x1="615.0" y1="206.0" x2="615.0" y2="1423.0" stroke="#777" stroke-width="2" stroke-dasharray="6 6"/>
<rect x="766.5" y="152" width="142.0" height="54" fill="#fff" stroke="#000" stroke-width="2"/>
<text x="837.5" y="179.0" text-anchor="middle" dominant-baseline="middle" font-family="Comic Sans MS" font-size="14" font-weight="bold" fill="#000000">Database</text>
<line x1="837.5" y1="206.0" x2="837.5" y2="1423.0" stroke="#777" stroke-width="2" stroke-dasharray="6 6"/>
<circle cx="1060.0" cy="155" r="10" fill="#fff" stroke="#000" stroke-width="2"/>
<line x1="1060.0" y1="165" x2="1060.0" y2="205" stroke="#000" stroke-width="2"/>
<line x1="1040.0" y1="189" x2="1080.0" y2="189" stroke="#000" stroke-width="2"/>
<line x1="1060.0" y1="205" x2="1044.0" y2="229" stroke="#000" stroke-width="2"/>
<line x1="1060.0" y1="205" x2="1076.0" y2="229" stroke="#000" stroke-width="2"/>
<text x="1060.0" y="247.0" text-anchor="middle" dominant-baseline="middle" font-family="Comic Sans MS" font-size="14" font-weight="bold" fill="#000000">Student</text>
<line x1="1060.0" y1="260.0" x2="1060.0" y2="1423.0" stroke="#777" stroke-width="2" stroke-dasharray="6 6"/>
<rect x="170.0" y="256.3" width="928.0" height="33.2" fill="#ffff88" stroke="#d6d67d" stroke-width="1"/>
<text x="620.0" y="272.9" text-anchor="middle" dominant-baseline="middle" font-family="Comic Sans MS" font-size="14" font-weight="bold" fill="#000000">Score Review Flow - Scormetry 2.0</text>
<line x1="177.0" y1="343.1" x2="385.5" y2="343.1" stroke="#000" stroke-width="2" marker-end="url(#arrow)" />
<rect x="186.4" y="314.1" width="189.6" height="26.0" fill="#fff"/>
<text x="281.2" y="327.1" text-anchor="middle" dominant-baseline="middle" font-family="Comic Sans MS" font-size="13" font-weight="bold" fill="#000000">Open team score overview</text>
<line x1="399.5" y1="422.7" x2="608.0" y2="422.7" stroke="#000" stroke-width="2" marker-end="url(#arrow)" />
<rect x="405.2" y="393.7" width="197.0" height="26.0" fill="#fff"/>
<text x="503.8" y="406.7" text-anchor="middle" dominant-baseline="middle" font-family="Comic Sans MS" font-size="13" font-weight="bold" fill="#000000">Request submitted reviews</text>
<line x1="622.0" y1="502.3" x2="830.5" y2="502.3" stroke="#000" stroke-width="2" marker-end="url(#arrow)" />
<rect x="627.8" y="464.3" width="197.0" height="44.0" fill="#fff"/>
<text x="726.2" y="477.8" text-anchor="middle" dominant-baseline="middle" font-family="Comic Sans MS" font-size="13" font-weight="bold" fill="#000000">Retrieve reviews for team</text>
<text x="726.2" y="494.8" text-anchor="middle" dominant-baseline="middle" font-family="Comic Sans MS" font-size="13" font-weight="bold" fill="#000000">papers</text>
<polyline points="615.0,581.9 671.0,581.9 671.0,609.9 615.0,609.9" fill="none" stroke="#000" stroke-width="2"/>
<polygon points="615.0,609.9 625.0,603.9 625.0,615.9" fill="#000"/>
<rect x="529.7" y="551.9" width="226.6" height="26.0" fill="#fff"/>
<text x="643.0" y="564.9" text-anchor="middle" dominant-baseline="middle" font-family="Comic Sans MS" font-size="13" font-weight="bold" fill="#000000">Calculate average final_score</text>
<line x1="608.0" y1="661.5" x2="399.5" y2="661.5" stroke="#000" stroke-width="2" stroke-dasharray="11 8" marker-end="url(#arrow)" />
<rect x="397.9" y="632.5" width="211.8" height="26.0" fill="#fff"/>
<text x="503.8" y="645.5" text-anchor="middle" dominant-baseline="middle" font-family="Comic Sans MS" font-size="13" font-weight="bold" fill="#000000">Display scores and feedback</text>
<rect x="170.0" y="711.6" width="928.0" height="33.2" fill="#ffff88" stroke="#d6d67d" stroke-width="1"/>
<text x="620.0" y="728.2" text-anchor="middle" dominant-baseline="middle" font-family="Comic Sans MS" font-size="14" font-weight="bold" fill="#000000">Score Override Flow</text>
<line x1="177.0" y1="798.4" x2="385.5" y2="798.4" stroke="#000" stroke-width="2" marker-end="url(#arrow)" />
<rect x="167.9" y="769.4" width="226.6" height="26.0" fill="#fff"/>
<text x="281.2" y="782.4" text-anchor="middle" dominant-baseline="middle" font-family="Comic Sans MS" font-size="13" font-weight="bold" fill="#000000">Optional override with reason</text>
<line x1="399.5" y1="877.9" x2="608.0" y2="877.9" stroke="#000" stroke-width="2" marker-end="url(#arrow)" />
<rect x="405.2" y="848.9" width="197.0" height="26.0" fill="#fff"/>
<text x="503.8" y="861.9" text-anchor="middle" dominant-baseline="middle" font-family="Comic Sans MS" font-size="13" font-weight="bold" fill="#000000">Save override if provided</text>
<line x1="622.0" y1="957.5" x2="830.5" y2="957.5" stroke="#000" stroke-width="2" marker-end="url(#arrow)" />
<rect x="620.4" y="919.5" width="211.8" height="44.0" fill="#fff"/>
<text x="726.2" y="933.0" text-anchor="middle" dominant-baseline="middle" font-family="Comic Sans MS" font-size="13" font-weight="bold" fill="#000000">Update final_score_override</text>
<text x="726.2" y="950.0" text-anchor="middle" dominant-baseline="middle" font-family="Comic Sans MS" font-size="13" font-weight="bold" fill="#000000">fields</text>
<rect x="170.0" y="1007.6" width="928.0" height="33.2" fill="#ffff88" stroke="#d6d67d" stroke-width="1"/>
<text x="620.0" y="1024.3" text-anchor="middle" dominant-baseline="middle" font-family="Comic Sans MS" font-size="14" font-weight="bold" fill="#000000">Score Release Flow</text>
<line x1="177.0" y1="1094.4" x2="385.5" y2="1094.4" stroke="#000" stroke-width="2" marker-end="url(#arrow)" />
<rect x="223.4" y="1065.4" width="115.6" height="26.0" fill="#fff"/>
<text x="281.2" y="1078.4" text-anchor="middle" dominant-baseline="middle" font-family="Comic Sans MS" font-size="13" font-weight="bold" fill="#000000">Release scores</text>
<line x1="399.5" y1="1174.0" x2="608.0" y2="1174.0" stroke="#000" stroke-width="2" marker-end="url(#arrow)" />
<rect x="394.1" y="1136.0" width="219.2" height="44.0" fill="#fff"/>
<text x="503.8" y="1149.5" text-anchor="middle" dominant-baseline="middle" font-family="Comic Sans MS" font-size="13" font-weight="bold" fill="#000000">POST</text>
<text x="503.8" y="1166.5" text-anchor="middle" dominant-baseline="middle" font-family="Comic Sans MS" font-size="13" font-weight="bold" fill="#000000">/teams/{team}/release-scores</text>
<line x1="622.0" y1="1253.6" x2="830.5" y2="1253.6" stroke="#000" stroke-width="2" marker-end="url(#arrow)" />
<rect x="635.1" y="1215.6" width="182.2" height="44.0" fill="#fff"/>
<text x="726.2" y="1229.1" text-anchor="middle" dominant-baseline="middle" font-family="Comic Sans MS" font-size="13" font-weight="bold" fill="#000000">Set visibility_status =</text>
<text x="726.2" y="1246.1" text-anchor="middle" dominant-baseline="middle" font-family="Comic Sans MS" font-size="13" font-weight="bold" fill="#000000">published</text>
<line x1="1053.0" y1="1333.2" x2="399.5" y2="1333.2" stroke="#000" stroke-width="2" stroke-dasharray="11 8" marker-end="url(#arrow)" />
<rect x="631.5" y="1304.2" width="189.6" height="26.0" fill="#fff"/>
<text x="726.2" y="1317.2" text-anchor="middle" dominant-baseline="middle" font-family="Comic Sans MS" font-size="13" font-weight="bold" fill="#000000">Can view released result</text>
<text x="620.0" y="1517.0" text-anchor="middle" dominant-baseline="middle" font-family="Times New Roman" font-size="31" font-weight="bold" fill="#000000">Fig. 22. Release Scores Sequence Diagram (Admin)</text>
</svg>